<?xml version="1.0" encoding="UTF-8"?>
<svg id="Vrstva_1" xmlns="http://www.w3.org/2000/svg" version="1.1" viewBox="0 0 40 40">
  <!-- Generator: Adobe Illustrator 29.6.1, SVG Export Plug-In . SVG Version: 2.1.1 Build 9)  -->
  <defs>
    <style>
      .st0 {
        fill: #1a2d4e;
      }
    </style>
  </defs>
  <path class="st0" d="M19.4,33C7.1,33,1.5,21.7,1.3,21.2l-.3-.6.3-.6c.2-.5,5.8-11.8,18.4-11.8s17.3,11.4,17.5,11.9l.3.6-.2.6c0,.1-4.6,11.9-17.9,11.9ZM4.3,20.6c1.3,2.3,6.1,9.5,15.1,9.5s13.8-7.2,14.8-9.4c-1.2-2.1-6-9.6-14.5-9.6s-14.1,7.2-15.4,9.5Z"/>
  <path class="st0" d="M19.3,26c-3,0-5.5-2.5-5.5-5.5s2.5-5.5,5.5-5.5,5.5,2.5,5.5,5.5-2.5,5.5-5.5,5.5ZM19.3,18.1c-1.4,0-2.5,1.1-2.5,2.5s1.1,2.5,2.5,2.5,2.5-1.1,2.5-2.5-1.1-2.5-2.5-2.5Z"/>
</svg>