<?xml version="1.0" encoding="UTF-8"?>
<svg id="Vrstva_1" xmlns="http://www.w3.org/2000/svg" version="1.1" viewBox="0 0 40 40">
  <!-- Generator: Adobe Illustrator 29.6.1, SVG Export Plug-In . SVG Version: 2.1.1 Build 9)  -->
  <defs>
    <style>
      .st0 {
        fill: #1a2d4e;
      }
    </style>
  </defs>
  <path class="st0" d="M31.1,17.4h-1.2v-6.9c0-5-4-9-9-9h-1.9c-5,0-9,4-9,9v6.9h-1.2c-2,0-3.5,1.6-3.5,3.5v14.1c0,2,1.6,3.5,3.5,3.5h22.3c2,0,3.5-1.6,3.5-3.5v-14.1c0-2-1.6-3.5-3.5-3.5ZM13.1,10.5c0-3.3,2.7-6,6-6h1.9c3.3,0,6,2.7,6,6v6.9h-13.9v-6.9ZM31.7,35c0,.3-.2.5-.5.5H8.9c-.3,0-.5-.2-.5-.5v-14.1c0-.3.2-.5.5-.5h22.3c.3,0,.5.2.5.5v14.1Z"/>
  <rect class="st0" x="18.5" y="25.2" width="3.1" height="6.1" rx=".6" ry=".6"/>
</svg>