<?xml version="1.0" encoding="UTF-8"?>
<svg id="Vrstva_1" xmlns="http://www.w3.org/2000/svg" version="1.1" viewBox="0 0 396.9 131.1">
  <!-- Generator: Adobe Illustrator 29.6.1, SVG Export Plug-In . SVG Version: 2.1.1 Build 9)  -->
  <defs>
    <style>
      .st0 {
        fill: #f3f1ed;
      }
    </style>
  </defs>
  <g>
    <path class="st0" d="M160.2,56.6v14.1h12.4v-14.1h9.1v36.1h-9.1v-14.5h-12.4v14.5h-9.1v-36.1h9.1Z"/>
    <path class="st0" d="M205,84.9h8c-1.4,5.2-5.5,8.6-12.5,8.6s-13.8-5.7-13.8-13.7,5.1-13.7,13.3-13.7,13.3,6.5,13.3,15.9h-18.6c0,3.6,2.7,5.6,5.6,5.6s4.1-1.3,4.6-2.6ZM194.8,77h10.5c0-3.6-2.2-5.4-5.3-5.4s-5.3,1.8-5.3,5.4Z"/>
    <path class="st0" d="M242.5,75.2v17.5h-8.1v-14.9c0-3.9-1.4-5.2-4-5.2s-4.8,1.6-4.8,5.2v14.9h-8.1v-25.9h8.1v3.7h.1c1.4-2.4,3.9-4.5,8.5-4.5s8.4,3.3,8.4,9.2Z"/>
    <path class="st0" d="M264.2,66.6v7.1h-.1c-4.1-.8-8.5,1.5-8.5,7v12h-8.1v-25.9h8.1v4.2h.1c1.3-2.9,3.5-4.7,6.3-4.7s1.3,0,2.2.2Z"/>
    <path class="st0" d="M284.7,93.2c-2.2,6.6-4.6,8.4-10.1,8.4s-2.8-.2-4.5-.5v-6.1h.1c2.2.5,4,.3,4.9-1.1.8-1.2.6-2.8-.2-5l-8.4-22.1h8.1l5.9,17h.1l4.9-17h8.1l-8.8,26.4Z"/>
    <path class="st0" d="M322.8,63.2c-6,0-8.2,4.6-8.2,11.4s2.3,11.5,8.6,11.5,7.1-2.5,7.2-6h-6.9v-6.6h16.3v19.2h-6.5l-.9-4.6h-.1c-1.7,3.3-5.1,5.4-10.4,5.4-10.2,0-16.4-8-16.4-18.9s6.1-18.8,17.5-18.8,15.4,5.9,16.3,12.8h-9.1c-.7-2.5-2.3-5.4-7.3-5.4Z"/>
    <path class="st0" d="M356.9,71.6c-2.9,0-4.3,1.1-4.6,3.6h-7.6c.3-4.9,3.8-9.1,12.2-9.1s11.3,2.8,11.3,11v11.9c0,1.4.5,1.9,1.5,1.9v1.9c-1.6.6-3.1.8-4.7.8-3.6,0-4.6-1.7-4.6-3.5h-.1c-1.7,1.9-4.7,3.5-8.1,3.5-5.5,0-8.5-3.1-8.5-7.4s3.8-7.5,9.8-8.7c3.3-.7,6.6-1.2,6.6-3.3s-1.1-2.4-3.3-2.4ZM360.1,83.3v-3.1c-1,.4-2.3.8-4.1,1.2-3.2.7-4.2,2-4.2,3.6s1.3,3,3.2,3c3.5,0,5.2-2.2,5.2-4.7Z"/>
    <path class="st0" d="M396.9,85.1c0,5.5-4.1,8.4-11.3,8.4s-12.8-4.1-13-9.4h7.6c.3,2.6,2,3.8,5.2,3.8s3.5-.8,3.5-2.2c0-2.2-2.4-2.5-6.5-3.4-4.4-1-9.2-2.6-9.2-8s4-8.3,11.3-8.3,11.5,4.2,11.8,8.7h-7.6c-.3-2.1-1.4-3.2-4-3.2s-3.4.8-3.4,2.1c0,1.8,1.6,1.9,5.6,2.7,5.1,1.1,10.1,2.8,10.1,8.7Z"/>
  </g>
  <g>
    <path class="st0" d="M0,65.3v65.7c10.7,0,32.8-1,32.8-24.3v-19.6C17.9,85.8,6.1,77.6,0,65.3Z"/>
    <path class="st0" d="M109.6,65.7V0c-10.7,0-32.8,1-32.8,24.3v19.6c14.9,1.4,26.7,9.6,32.8,21.8Z"/>
    <path class="st0" d="M0,24.4v18.6C0,65.8,16.3,82.1,39.1,82.1h25.3c7.3.1,12.3,6.1,12.3,14.8v34.2c15.9,0,32.8-5.6,32.8-23.4h0c0-.3,0-.6,0-.9v-18.7c0-22.8-16.3-39.1-39.1-39.1h-25.2s0,0,0,0c-7.1-.2-12.4-6.7-12.3-14.8V0C16.9,0,0,5.6,0,23.4c0,.3,0,.7,0,1"/>
  </g>
</svg>