<?xml version="1.0" encoding="UTF-8"?>
<svg id="Vrstva_1" xmlns="http://www.w3.org/2000/svg" version="1.1" viewBox="0 0 40 40">
  <!-- Generator: Adobe Illustrator 29.6.1, SVG Export Plug-In . SVG Version: 2.1.1 Build 9)  -->
  <defs>
    <style>
      .st0 {
        fill: #1a2d4e;
      }
    </style>
  </defs>
  <path class="st0" d="M35.8,32.9l-4.5-3.9-2.2-2-4.9-4.3-2.3-2-2.8-2.5-2.3-2-4.1-3.6-2.4-2.1-6.1-5.4c-.5-.5-1.4-.4-1.9.1-.5.6-.4,1.4.1,1.9l5.6,4.9c-4.4,3.3-6.5,7.6-6.6,7.9l-.3.6.3.6c.2.5,5.9,11.7,18,11.7s7.1-1,9.7-2.4l5,4.4c.2.2.6.3.9.3s.7-.2,1-.5c.5-.5.4-1.4-.1-1.9ZM16.9,19.9l3.6,3.2c-.4.2-.8.3-1.2.3-1.4,0-2.6-1.2-2.6-2.6s0-.6.2-.9ZM19.3,29.9c-8.7,0-13.7-7.2-15-9.4.7-1.3,2.7-4.2,5.9-6.5l4.6,4.1c-.5.8-.8,1.7-.8,2.7,0,2.9,2.3,5.2,5.2,5.2s2.4-.4,3.3-1.2l4,3.5c-2,.9-4.4,1.5-7.3,1.5Z"/>
  <path class="st0" d="M37.4,20c0-.1-4.9-11.8-18.1-11.8s-3.4.2-4.8.6c-1,.3-2,.6-2.9,1l2.5,2.2,4.2,3.7,6.2,5.4,5.7,5,2.2,1.9c.7-.6,1.3-1.3,1.9-1.9,2.2-2.6,3.1-5.1,3.2-5.1l.2-.5-.2-.5ZM32.1,24.2l-14.8-12.9c.6,0,1.3-.1,2-.1,9.8,0,14.1,7.3,15.1,9.4-.3.7-1.1,2.2-2.3,3.7Z"/>
</svg>