<?xml version="1.0" encoding="UTF-8"?>
<svg id="Vrstva_1" xmlns="http://www.w3.org/2000/svg" version="1.1" viewBox="0 0 2251.5 1889.7">
  <!-- Generator: Adobe Illustrator 29.5.1, SVG Export Plug-In . SVG Version: 2.1.0 Build 141)  -->
  <defs>
    <style>
      .st0 {
        fill: #D0D0D0;
        opacity: .1;
      }
    </style>
  </defs>
  <path class="st0" d="M2251.5,1094.1l-611.6,593.1c-5.5,5.3-12,9.4-19,12.2-7.3,2.9-15.1,4.7-23,5.2-16.6,1.3-33.1-2.9-47.1-11.8l-482.9-312.6h-.1c0,0,526-525,526-525h-499.5l252.8-246.9h.2c0,0,136.3-132.1,136.3-132.1l103.4-100.3c5.5-5.2,12-9.4,19-12.2,7.4-2.9,15.1-4.7,23-5.2,16.6-1.3,33.1,2.9,47.1,11.9l575.2,372.4v-220.4l-475-307.5-.4-.3c-47.1-30-102.5-44.3-158.2-40.8h-.5c-27.6,1.8-54.8,7.9-80.5,18.2-29.2,11.7-55.9,29-78.5,50.9l-134.1,130L793.8,29.4l-7.8-3.2C740.6,6.9,691.5-1.9,642.3.4h-.5c-27.6,1.8-54.8,7.9-80.4,18.2-29.2,11.7-55.9,29-78.5,50.9L0,537.6v257.8L611.5,202.4c5.5-5.2,12-9.4,19-12.2,7.3-2.9,15.1-4.7,23-5.2,18.7-.6,37.3,2.6,54.7,9.3l478.2,309.6-534.2,534.2h499.5l-278.1,272.6-101.3,98.2-108,104.7c-5.5,5.3-12,9.4-19,12.2-7.3,2.9-15.1,4.7-23,5.2-16.6,1.2-33.1-2.9-47.1-11.9L0,1146.9v220.4l474.9,307.5.4.3c42.3,27.1,91.6,41.4,141.8,41.2,5.4,0,10.9-.2,16.4-.5h.5c27.6-1.8,54.8-7.9,80.5-18.2,29.2-11.7,55.9-29,78.5-50.9l138.6-134.4,518.9,335.9.5.3c42.3,27.1,91.6,41.4,141.8,41.2,5.4,0,10.9-.2,16.4-.5h.5c27.6-1.8,54.8-7.9,80.5-18.2,29.2-11.7,55.9-29,78.5-50.9l482.8-468.1v-257.9Z"/>
</svg>