<?xml version="1.0" encoding="UTF-8"?>
<svg id="Vrstva_1" xmlns="http://www.w3.org/2000/svg" version="1.1" viewBox="0 0 260 69.9">
  <!-- Generator: Adobe Illustrator 29.5.1, SVG Export Plug-In . SVG Version: 2.1.0 Build 141)  -->
  <defs>
    <style>
      .st0 {
        fill: #1d1d1b;
      }

      .st1 {
        fill: #32b5af;
      }

      .st2 {
        isolation: isolate;
      }
    </style>
  </defs>
  <path id="picto03" class="st1" d="M86.4,30.4c-.6-1.1-1.4-2-2.4-2.7l-21.5-13.9h0c-1.4-.9-3-1.3-4.6-1.2h0c-.8,0-1.6.2-2.3.5-.8.3-1.6.8-2.3,1.5l-3.9,3.8-15.4-10h-.2c-1.3-.7-2.7-.9-4.2-.8h0c-.8,0-1.6.2-2.3.5-.8.3-1.6.8-2.3,1.5L2,31.8c-.4.4-.7.8-1,1.2-1.3,1.9-1.4,4.4-.3,6.5.6,1.1,1.4,2,2.4,2.7l21.5,13.9h0c1.2.8,2.7,1.2,4.1,1.2.2,0,.3,0,.5,0h0c.8,0,1.6-.2,2.3-.5.8-.3,1.6-.8,2.3-1.5l4-3.9,15,9.7h0c1.2.8,2.7,1.2,4.1,1.2.2,0,.3,0,.5,0h0c.8,0,1.6-.2,2.3-.5.8-.3,1.6-.8,2.3-1.5l22.9-22.2h0c.4-.4.7-.8.9-1.2,1.3-1.9,1.4-4.4.3-6.5h0ZM36.2,45.6l-2.9,2.8-3.1,3c-.2.2-.3.3-.6.4-.2,0-.4.1-.7.1-.5,0-1,0-1.4-.3l-21.5-13.9c-.2-.1-.4-.4-.6-.6h0c-.1-.2-.1-.5-.1-.7h0c0-.2,0-.3.2-.5,0,0,.1-.2.2-.2L28.6,13.4c.2-.2.3-.3.6-.4.2,0,.4-.1.7-.1.5,0,1.1,0,1.6.3l13.9,9-15.5,15.5h14.5l-8.1,7.9ZM81.7,33.5h0c0,.2,0,.3-.2.5,0,0-.1.2-.2.2l-22.9,22.2c-.2.2-.3.3-.6.4-.2,0-.4.1-.7.1-.5,0-1,0-1.4-.3l-14-9.1h0s15.2-15.2,15.2-15.2h-14.5l7.3-7.2h0s3.9-3.8,3.9-3.8l3-2.9c.2-.2.3-.3.6-.4.2,0,.4-.1.7-.1.5,0,1,0,1.4.3l21.5,13.9c.2.2.4.4.6.6.1.2.1.5.1.7h0Z"/>
  <g>
    <g class="st2">
      <path class="st0" d="M121.8,7.6c.1,0,.3,0,.6.2s.4.4.4.9v2.5c0,.5-.1.8-.4.9s-.4.2-.6.2h-18.8c-.1,0-.3,0-.5-.2-.2-.1-.3-.4-.3-.9v-2.5c0-.5.1-.8.3-1,.2-.1.4-.2.5-.2h18.8ZM107,26.7c0,1.1.3,1.9.9,2.3.6.4,1.4.7,2.4.7h11.5c.3,0,.6.1.7.3.1.2.2.5.2.8v2.6c0,.3,0,.6-.2.8-.1.2-.4.3-.7.3h-11.6c-1.6,0-2.9-.2-3.9-.7-1-.4-1.9-1.1-2.5-1.9s-1-1.8-1.3-3-.4-2.5-.4-3.9v-4.3c0-.3,0-.5.1-.8s.2-.5.4-.7c.2-.2.5-.4.8-.5s.8-.2,1.3-.2h16.9c.3,0,.6.1.7.3.1.2.2.5.2.8v2.6c0,.3,0,.6-.2.8-.1.2-.4.3-.7.3h-14.6v3.4Z"/>
      <path class="st0" d="M146.8,7.6c.3,0,.6.1.7.3.1.2.2.5.2.8s0,.5,0,.9,0,.8,0,1.2c0,.4-.1.8-.2,1.1-.1.3-.4.5-.7.5h-11.7c-.8,0-1.5.1-1.9.4-.5.2-.8.6-1,1s-.3.9-.4,1.5c0,.6,0,1.2,0,1.9v7.6c0,.7,0,1.3,0,1.9,0,.6.2,1.1.4,1.5s.6.8,1,1c.5.3,1.1.4,1.9.4h11.7c.3,0,.6.1.7.3s.2.5.2.8,0,.5,0,.9,0,.8,0,1.2c0,.4-.1.8-.2,1.1-.1.3-.4.4-.7.4h-11.9c-1.7,0-3-.3-4.1-.8-1.1-.5-1.9-1.2-2.5-2.1-.6-.9-1-2-1.2-3.2-.2-1.3-.3-2.7-.3-4.2v-6.4c0-1.5,0-2.8.3-4.1s.6-2.3,1.2-3.2c.6-.9,1.4-1.6,2.5-2.1,1.1-.5,2.4-.8,4.1-.8h11.9Z"/>
      <path class="st0" d="M155.8,7.6c.3,0,.6.1.7.3.1.2.2.5.2.8v16.1c0,.7,0,1.3.1,1.9s.3,1.1.5,1.5.6.8,1,1c.4.2,1,.4,1.6.4h10.6c.3,0,.6.1.7.3.1.2.2.5.2.8v2.6c0,.3,0,.6-.2.8-.1.2-.4.3-.7.3h-10.8c-1.7,0-3.1-.3-4.1-.8-1.1-.5-1.9-1.2-2.5-2.1-.6-.9-1-2-1.2-3.3-.2-1.3-.3-2.6-.3-4.1v-15.5c0-.3,0-.6.2-.8.1-.2.4-.3.7-.3h3Z"/>
      <path class="st0" d="M180,7.6c.1,0,.3,0,.6.2s.4.4.4.9v24.7c0,.5-.1.8-.4.9s-.4.2-.6.2h-3c-.1,0-.3,0-.6-.2s-.4-.4-.4-.9V8.7c0-.5.1-.8.4-.9s.4-.2.6-.2h3Z"/>
      <path class="st0" d="M203.4,7.6c1.2,0,2.3.2,3.1.6.8.4,1.4,1,1.9,1.7.5.7.8,1.5,1,2.5s.3,2,.3,3.1,0,2.1-.3,3.1c-.2,1-.5,1.8-1,2.5-.5.7-1.1,1.3-1.9,1.7-.8.4-1.8.6-3.1.6h-11.2v10c0,.3,0,.6-.2.8-.1.2-.4.3-.7.3h-3c-.3,0-.6-.1-.7-.3-.1-.2-.2-.5-.2-.8v-13.7c0-.3,0-.6.2-.8.1-.2.4-.3.7-.3h14.2c.5,0,.9,0,1.2-.2.3-.2.5-.4.7-.7.2-.3.3-.6.3-1,0-.4,0-.8,0-1.2s0-.8,0-1.2c0-.4-.2-.7-.3-1-.2-.3-.4-.5-.7-.7-.3-.2-.7-.2-1.2-.2h-14.2c-.3,0-.6-.1-.7-.3-.1-.2-.2-.5-.2-.8s0-.6,0-1,0-.8,0-1.2.1-.8.2-1.1c.1-.3.4-.4.7-.4h15.1Z"/>
      <path class="st0" d="M219.1,17.4c0,.3,0,.5.3.7.2.2.4.3.6.3h9.8c1,0,1.8.2,2.5.6.7.4,1.2.9,1.6,1.5.4.6.7,1.4.8,2.2.2.8.2,1.6.2,2.5v2.9c0,.8,0,1.7-.3,2.5s-.5,1.5-.9,2.1c-.4.6-1,1.1-1.6,1.4-.7.3-1.5.5-2.4.5h-14.7c-.3,0-.6-.1-.7-.3-.1-.2-.2-.5-.2-.8v-2.6c0-.3,0-.6.2-.8.1-.2.4-.3.7-.3h14c.5,0,.9-.2,1-.6.1-.4.2-.8.2-1.2v-2.8c0-.4,0-.8-.2-1.2-.1-.4-.4-.6-.9-.6h-9.8c-1.8,0-3.1-.5-3.9-1.5-.8-1-1.2-2.5-1.2-4.3v-4.2c0-.7,0-1.3.2-2s.4-1.3.8-1.8c.4-.5.9-1,1.6-1.3.7-.3,1.5-.5,2.6-.5h14.1c.3,0,.6.1.7.3.1.2.2.5.2.8v2.6c0,.3,0,.6-.2.8-.1.2-.4.3-.7.3h-13.3c-.2,0-.4,0-.6.2-.2.2-.3.3-.3.6v4.2Z"/>
      <path class="st0" d="M259.1,7.6c.1,0,.3,0,.6.2s.4.4.4.9v2.5c0,.5-.1.8-.4.9s-.4.2-.6.2h-18.8c-.1,0-.3,0-.5-.2-.2-.1-.3-.4-.3-.9v-2.5c0-.5.1-.8.3-1,.2-.1.4-.2.5-.2h18.8ZM244.3,26.7c0,1.1.3,1.9.9,2.3.6.4,1.4.7,2.4.7h11.5c.3,0,.6.1.7.3.1.2.2.5.2.8v2.6c0,.3,0,.6-.2.8-.1.2-.4.3-.7.3h-11.6c-1.6,0-2.9-.2-3.9-.7-1-.4-1.9-1.1-2.5-1.9-.6-.8-1-1.8-1.3-3s-.4-2.5-.4-3.9v-4.3c0-.3,0-.5.1-.8s.2-.5.4-.7c.2-.2.5-.4.8-.5s.8-.2,1.3-.2h16.9c.3,0,.6.1.7.3.1.2.2.5.2.8v2.6c0,.3,0,.6-.2.8-.1.2-.4.3-.7.3h-14.6v3.4Z"/>
    </g>
    <g class="st2">
      <path class="st0" d="M102.1,62.1v-12.1h7.9v1.3h-6.4v3.9h6.3v1.3h-6.3v4.2h6.4v1.3h-7.9Z"/>
      <path class="st0" d="M121.7,62.1l-7-9.7v9.7h-1.5v-12.1h1.5l6.9,9.5v-9.5h1.5v12.1h-1.4Z"/>
      <path class="st0" d="M126.6,62.1v-12.1h7.9v1.3h-6.4v3.9h6.3v1.3h-6.3v4.2h6.4v1.3h-7.9Z"/>
      <path class="st0" d="M144.6,62.1l-3.1-4.8h-2.4v4.8h-1.5v-12.1h4.8c2.2,0,3.8,1.4,3.8,3.6s-1.5,3.4-3.1,3.5l3.3,4.9h-1.8ZM142.3,51.4h-3.2v4.6h3.2c1.4,0,2.4-1,2.4-2.3s-1-2.3-2.4-2.3Z"/>
      <path class="st0" d="M155.1,49.8c2.1,0,3.6.9,4.7,2.3l-1.2.7c-.8-1-2-1.7-3.5-1.7-2.6,0-4.6,2-4.6,4.9s2,4.9,4.6,4.9,2.6-.7,3.2-1.3v-2.5h-4.1v-1.3h5.6v4.4c-1.1,1.2-2.8,2.1-4.7,2.1-3.4,0-6.2-2.5-6.2-6.3s2.8-6.2,6.2-6.2Z"/>
      <path class="st0" d="M166.3,62.1v-5.1l-4.8-7h1.8l3.7,5.6,3.7-5.6h1.8l-4.7,7v5.1h-1.5Z"/>
      <path class="st0" d="M180.4,59.2c.8.9,2.1,1.7,3.8,1.7s2.8-1.2,2.8-2.1c0-1.4-1.5-1.8-3.1-2.3-1.9-.5-4.1-1-4.1-3.4s1.8-3.3,4.1-3.3,3.3.6,4.3,1.7l-.9,1.1c-.9-1-2.2-1.4-3.5-1.4s-2.5.8-2.5,1.9,1.4,1.6,2.9,2c2,.5,4.2,1.1,4.2,3.7s-1.2,3.5-4.4,3.5-3.6-.8-4.6-1.9l.9-1.1Z"/>
      <path class="st0" d="M194.9,62.1v-5.1l-4.8-7h1.8l3.7,5.6,3.7-5.6h1.8l-4.7,7v5.1h-1.5Z"/>
      <path class="st0" d="M203.2,59.2c.8.9,2.1,1.7,3.8,1.7s2.8-1.2,2.8-2.1c0-1.4-1.5-1.8-3.1-2.3-1.9-.5-4.1-1-4.1-3.4s1.8-3.3,4.1-3.3,3.3.6,4.3,1.7l-.9,1.1c-.9-1-2.2-1.4-3.5-1.4s-2.5.8-2.5,1.9,1.4,1.6,2.9,2c2,.5,4.2,1.1,4.2,3.7s-1.2,3.5-4.4,3.5-3.6-.8-4.6-1.9l.9-1.1Z"/>
      <path class="st0" d="M217.2,62.1v-10.7h-3.8v-1.3h9.1v1.3h-3.8v10.7h-1.5Z"/>
      <path class="st0" d="M225.3,62.1v-12.1h7.9v1.3h-6.4v3.9h6.3v1.3h-6.3v4.2h6.4v1.3h-7.9Z"/>
      <path class="st0" d="M246.6,62.1v-10l-4.1,10h-.6l-4.1-10v10h-1.5v-12.1h2.2l3.7,9.2,3.8-9.2h2.2v12.1h-1.5Z"/>
      <path class="st0" d="M251.8,59.2c.8.9,2.1,1.7,3.8,1.7s2.8-1.2,2.8-2.1c0-1.4-1.5-1.8-3.1-2.3-1.9-.5-4.1-1-4.1-3.4s1.8-3.3,4.1-3.3,3.3.6,4.3,1.7l-.9,1.1c-.9-1-2.2-1.4-3.5-1.4s-2.5.8-2.5,1.9,1.4,1.6,2.9,2c2,.5,4.2,1.1,4.2,3.7s-1.2,3.5-4.4,3.5-3.6-.8-4.6-1.9l.9-1.1Z"/>
    </g>
  </g>
</svg>