<?xml version="1.0" encoding="UTF-8"?>
<svg id="Vrstva_1" xmlns="http://www.w3.org/2000/svg" version="1.1" xmlns:xlink="http://www.w3.org/1999/xlink" viewBox="0 0 28.2 28.1">
  <!-- Generator: Adobe Illustrator 29.5.1, SVG Export Plug-In . SVG Version: 2.1.0 Build 141)  -->
  <defs>
    <style>
      .st0 {
        fill: #4b5361;
      }

      .st1 {
        fill: none;
      }

      .st2 {
        clip-path: url(#clippath);
      }
    </style>
    <clipPath id="clippath">
      <rect class="st1" width="28.2" height="28.1"/>
    </clipPath>
  </defs>
  <g class="st2">
    <g id="Group_21">
      <path id="Path_50" class="st0" d="M21.2,0c.3,0,.7.1,1,.2,3.3.8,5.6,3.6,5.9,7-.2,4.5.3,9.3,0,13.8-.3,3.8-3.3,6.8-7,7.2H7.1c-3.3-.2-6.1-2.6-6.9-5.9,0-.3-.1-.7-.2-1V6.9C.4,3.3,3.3.4,6.9,0h14.3ZM7.3,1.7c-3.1.2-5.5,2.7-5.6,5.8-.2,4.3.2,8.9,0,13.2.1,3.1,2.6,5.6,5.7,5.8,4.4-.2,9,.3,13.3,0,3.1-.1,5.6-2.6,5.7-5.7.3-4.4-.2-9,0-13.3-.1-3.1-2.7-5.6-5.8-5.7-4.4-.2-8.9.2-13.3,0"/>
      <path id="Path_51" class="st0" d="M13.4,6.4c4.2-.4,8,2.8,8.3,7,.4,4.2-2.8,8-7,8.3-3,.3-5.9-1.3-7.4-3.9-2.1-3.7-.7-8.4,3-10.5.9-.5,2-.8,3-.9M13.7,8c-3.3.2-5.9,3-5.7,6.3.2,3.3,3,5.9,6.3,5.7,1.9,0,3.7-1.1,4.7-2.7,1.8-2.8,1-6.5-1.8-8.4-1.1-.7-2.3-1-3.5-1"/>
      <path id="Path_52" class="st0" d="M21.8,3.6c1.3,0,2.3.9,2.4,2.2,0,1.2-.8,2.2-2,2.4-3.1.3-3.4-4.4-.4-4.5M21.5,6.3c.6.6,1.5-.3.9-.9s-1.4.3-.9.9"/>
    </g>
  </g>
</svg>