<?xml version="1.0" encoding="UTF-8"?>
<svg id="Vrstva_1" xmlns="http://www.w3.org/2000/svg" version="1.1" xmlns:xlink="http://www.w3.org/1999/xlink" viewBox="0 0 28.2 28.1">
  <!-- Generator: Adobe Illustrator 29.5.1, SVG Export Plug-In . SVG Version: 2.1.0 Build 141)  -->
  <defs>
    <style>
      .st0 {
        fill: #4b5361;
      }

      .st1 {
        fill: none;
      }

      .st2 {
        clip-path: url(#clippath);
      }
    </style>
    <clipPath id="clippath">
      <rect class="st1" x=".1" width="28.1" height="28.1"/>
    </clipPath>
  </defs>
  <g class="st2">
    <g id="Group_19">
      <path id="Path_49" class="st0" d="M16.7,28.1v-10h4.2l.5-3.2h-4.8v-3.6c0-.2.2-.4.3-.7.3-.3.6-.5.9-.7h3.8v-3.3h-4.1c-1.8,0-4.1,1.8-4.1,3.7v4.6h-3.3v3.2h3.3v10H3.4c-1.3,0-3.3-2.1-3.3-3.4V3.5C.4,1.7,1.9.2,3.7,0h21c1.8.3,3.2,1.7,3.5,3.5v21.1c0,1.4-2,3.5-3.3,3.5h-8.2ZM18.3,26.4h6c1.2-.2,2.1-1.1,2.2-2.3V4.1c0-1.3-1.1-2.3-2.4-2.4H4.2c-1.3,0-2.4,1.1-2.5,2.4v20c0,1.2,1,2.1,2.2,2.3h7.8v-6.7h-3.3v-6.6h3.3v-3.3c0-2.2,3-4.9,5.2-4.9h6.4v6.7h-5v1.6h5.1l-1.1,6.6h-4v6.7Z"/>
    </g>
  </g>
</svg>